<mxfile host="app.diagrams.net" modified="2022-06-23T17:45:13.347Z" agent="5.0 (Macintosh; Intel Mac OS X 10_15_7) AppleWebKit/537.36 (KHTML, like Gecko) Chrome/102.0.5005.61 Safari/537.36" etag="oRLAYJbHqCe0vYt-b_Lh" version="20.0.1" type="github">
  <diagram id="JS3hQXzzDqp8MdbZ3Wn3" name="Page-1">
    <mxGraphModel dx="2145" dy="1823" grid="1" gridSize="10" guides="1" tooltips="1" connect="1" arrows="1" fold="1" page="1" pageScale="1" pageWidth="827" pageHeight="1169" math="0" shadow="0">
      <root>
        <mxCell id="0" />
        <mxCell id="1" parent="0" />
        <mxCell id="oXQAJRGUwz_4EwkfqPwA-1" value="Satellite" style="swimlane;fontStyle=3;align=center;verticalAlign=top;childLayout=stackLayout;horizontal=1;startSize=26;horizontalStack=0;resizeParent=1;resizeParentMax=0;resizeLast=0;collapsible=1;marginBottom=0;" parent="1" vertex="1">
          <mxGeometry x="-120" y="370" width="550" height="198" as="geometry" />
        </mxCell>
        <mxCell id="oXQAJRGUwz_4EwkfqPwA-2" value="- direction: int = CLOCKWISE&#xa;- velocity: int" style="text;strokeColor=none;fillColor=none;align=left;verticalAlign=top;spacingLeft=4;spacingRight=4;overflow=hidden;rotatable=0;points=[[0,0.5],[1,0.5]];portConstraint=eastwest;" parent="oXQAJRGUwz_4EwkfqPwA-1" vertex="1">
          <mxGeometry y="26" width="550" height="94" as="geometry" />
        </mxCell>
        <mxCell id="oXQAJRGUwz_4EwkfqPwA-3" value="" style="line;strokeWidth=1;fillColor=none;align=left;verticalAlign=middle;spacingTop=-1;spacingLeft=3;spacingRight=3;rotatable=0;labelPosition=right;points=[];portConstraint=eastwest;" parent="oXQAJRGUwz_4EwkfqPwA-1" vertex="1">
          <mxGeometry y="120" width="550" height="8" as="geometry" />
        </mxCell>
        <mxCell id="oXQAJRGUwz_4EwkfqPwA-4" value="+ Satellite(satelliteId: String, type: String, height: double, position: Angle, maxRange: int, velocity: int)&#xa;+ getDirection(): int&#xa;+ setDirection(direction: int) : void" style="text;strokeColor=none;fillColor=none;align=left;verticalAlign=top;spacingLeft=4;spacingRight=4;overflow=hidden;rotatable=0;points=[[0,0.5],[1,0.5]];portConstraint=eastwest;" parent="oXQAJRGUwz_4EwkfqPwA-1" vertex="1">
          <mxGeometry y="128" width="550" height="70" as="geometry" />
        </mxCell>
        <mxCell id="oXQAJRGUwz_4EwkfqPwA-5" value="&lt;p style=&quot;margin:0px;margin-top:4px;text-align:center;&quot;&gt;&lt;b&gt;&lt;i&gt;Device&lt;/i&gt;&lt;/b&gt;&lt;/p&gt;&lt;hr size=&quot;1&quot;&gt;&lt;p style=&quot;margin:0px;margin-left:4px;&quot;&gt;- HEIGHT: int = RADIUS_OF_JUPITER&lt;/p&gt;&lt;hr size=&quot;1&quot;&gt;&lt;p style=&quot;margin:0px;margin-left:4px;&quot;&gt;+ Device(id: String, type: String, position: Angle, maxRange: int)&lt;/p&gt;&lt;p style=&quot;margin:0px;margin-left:4px;&quot;&gt;+&amp;nbsp;getAllCommunicableEntities(allEntities: ArrayList&amp;lt;Entity&amp;gt;) : ArrayList&amp;lt;Entity&amp;gt;&lt;br&gt;&lt;/p&gt;&lt;p style=&quot;margin:0px;margin-left:4px;&quot;&gt;&lt;br&gt;&lt;/p&gt;" style="verticalAlign=top;align=left;overflow=fill;fontSize=12;fontFamily=Helvetica;html=1;" parent="1" vertex="1">
          <mxGeometry x="510" y="350" width="430" height="110" as="geometry" />
        </mxCell>
        <mxCell id="oXQAJRGUwz_4EwkfqPwA-6" value="&lt;p style=&quot;margin:0px;margin-top:4px;text-align:center;&quot;&gt;&lt;b&gt;TeleportingSatellite&lt;/b&gt;&lt;/p&gt;&lt;hr size=&quot;1&quot;&gt;&lt;p style=&quot;margin:0px;margin-left:4px;&quot;&gt;- VELOCITY: int = 1000&lt;/p&gt;&lt;p style=&quot;margin:0px;margin-left:4px;&quot;&gt;- MAX_RANGE: int = 200000&lt;/p&gt;&lt;p style=&quot;margin:0px;margin-left:4px;&quot;&gt;- TYPE: String = &quot;TeleportingSatellite&quot;&lt;/p&gt;&lt;p style=&quot;margin:0px;margin-left:4px;&quot;&gt;- MAX_BYTES: int = 200&lt;/p&gt;&lt;p style=&quot;margin:0px;margin-left:4px;&quot;&gt;- INCOMING_BANDWIDTH: int = 1&lt;/p&gt;&lt;p style=&quot;margin:0px;margin-left:4px;&quot;&gt;- OUTGOING_BANDWIDTH: int = 1&lt;/p&gt;&lt;hr size=&quot;1&quot;&gt;&lt;p style=&quot;margin:0px;margin-left:4px;&quot;&gt;+ TeleportingSatellite(satelliteId: String, height: double, position: Angle)&lt;/p&gt;&lt;p style=&quot;margin:0px;margin-left:4px;&quot;&gt;+ move(): void&lt;/p&gt;" style="verticalAlign=top;align=left;overflow=fill;fontSize=12;fontFamily=Helvetica;html=1;" parent="1" vertex="1">
          <mxGeometry x="-740" y="240" width="430" height="170" as="geometry" />
        </mxCell>
        <mxCell id="oXQAJRGUwz_4EwkfqPwA-7" value="&lt;p style=&quot;margin:0px;margin-top:4px;text-align:center;&quot;&gt;&lt;b&gt;StandardSatellite&lt;/b&gt;&lt;/p&gt;&lt;hr size=&quot;1&quot;&gt;&lt;p style=&quot;margin:0px;margin-left:4px;&quot;&gt;- VELOCITY: int = 2500&lt;/p&gt;&lt;p style=&quot;margin:0px;margin-left:4px;&quot;&gt;- MAX_RANGE: int = 150000&lt;/p&gt;&lt;p style=&quot;margin:0px;margin-left:4px;&quot;&gt;- TYPE: String = &quot;StandardSatellite&quot;&lt;/p&gt;&lt;p style=&quot;margin:0px;margin-left:4px;&quot;&gt;- MAX_BYTES: int = 80&lt;/p&gt;&lt;p style=&quot;margin:0px;margin-left:4px;&quot;&gt;- MAX_FILES: int = 3&lt;/p&gt;&lt;p style=&quot;margin:0px;margin-left:4px;&quot;&gt;- INCOMING_BANDWIDTH: int = 15&lt;/p&gt;&lt;p style=&quot;margin:0px;margin-left:4px;&quot;&gt;- OUTGOING_BANDWIDTH: int = 10&lt;/p&gt;&lt;hr size=&quot;1&quot;&gt;&lt;p style=&quot;margin:0px;margin-left:4px;&quot;&gt;+ StandardSatellite(satelliteId: String, height: double, position: Angle)&lt;/p&gt;&lt;p style=&quot;margin:0px;margin-left:4px;&quot;&gt;+ move(): void&lt;/p&gt;&lt;p style=&quot;margin:0px;margin-left:4px;&quot;&gt;+ getAllCommunicableEntities(allEntities: ArrayList&amp;lt;Entity&amp;gt;): ArrayList&amp;lt;Entity&amp;gt;&lt;br&gt;&lt;/p&gt;" style="verticalAlign=top;align=left;overflow=fill;fontSize=12;fontFamily=Helvetica;html=1;" parent="1" vertex="1">
          <mxGeometry x="-620" y="480" width="450" height="200" as="geometry" />
        </mxCell>
        <mxCell id="oXQAJRGUwz_4EwkfqPwA-8" value="&lt;p style=&quot;margin:0px;margin-top:4px;text-align:center;&quot;&gt;&lt;b&gt;RelaySatellite&lt;/b&gt;&lt;/p&gt;&lt;hr size=&quot;1&quot;&gt;&lt;p style=&quot;margin:0px;margin-left:4px;&quot;&gt;- VELOCITY: int = 1500&lt;/p&gt;&lt;p style=&quot;margin:0px;margin-left:4px;&quot;&gt;- MAX_RANGE: int = 300000&lt;/p&gt;&lt;p style=&quot;margin:0px;margin-left:4px;&quot;&gt;- TYPE: String = &quot;RelaySatellite&quot;&lt;/p&gt;&lt;hr size=&quot;1&quot;&gt;&lt;p style=&quot;margin:0px;margin-left:4px;&quot;&gt;+ RelaySatellite(satelliteId: String, height: double, position: Angle)&lt;/p&gt;&lt;p style=&quot;margin:0px;margin-left:4px;&quot;&gt;+ move(): void&lt;/p&gt;" style="verticalAlign=top;align=left;overflow=fill;fontSize=12;fontFamily=Helvetica;html=1;" parent="1" vertex="1">
          <mxGeometry x="230" y="700" width="430" height="150" as="geometry" />
        </mxCell>
        <mxCell id="oXQAJRGUwz_4EwkfqPwA-9" value="Extends" style="endArrow=block;endSize=16;endFill=0;html=1;rounded=0;exitX=1;exitY=0;exitDx=0;exitDy=0;entryX=0;entryY=0;entryDx=0;entryDy=0;" parent="1" source="oXQAJRGUwz_4EwkfqPwA-6" target="oXQAJRGUwz_4EwkfqPwA-1" edge="1">
          <mxGeometry width="160" relative="1" as="geometry">
            <mxPoint x="110" y="160" as="sourcePoint" />
            <mxPoint x="220" y="167.5" as="targetPoint" />
          </mxGeometry>
        </mxCell>
        <mxCell id="oXQAJRGUwz_4EwkfqPwA-10" value="Extends" style="endArrow=block;endSize=16;endFill=0;html=1;rounded=0;exitX=1;exitY=0;exitDx=0;exitDy=0;entryX=0;entryY=0.5;entryDx=0;entryDy=0;" parent="1" source="oXQAJRGUwz_4EwkfqPwA-7" target="oXQAJRGUwz_4EwkfqPwA-2" edge="1">
          <mxGeometry width="160" relative="1" as="geometry">
            <mxPoint x="-30" y="440" as="sourcePoint" />
            <mxPoint x="130" y="440" as="targetPoint" />
          </mxGeometry>
        </mxCell>
        <mxCell id="oXQAJRGUwz_4EwkfqPwA-11" value="Extends" style="endArrow=block;endSize=16;endFill=0;html=1;rounded=0;exitX=0.463;exitY=-0.022;exitDx=0;exitDy=0;exitPerimeter=0;" parent="1" source="oXQAJRGUwz_4EwkfqPwA-8" target="oXQAJRGUwz_4EwkfqPwA-4" edge="1">
          <mxGeometry width="160" relative="1" as="geometry">
            <mxPoint x="330" y="390" as="sourcePoint" />
            <mxPoint x="490" y="390" as="targetPoint" />
          </mxGeometry>
        </mxCell>
        <mxCell id="oXQAJRGUwz_4EwkfqPwA-12" value="&lt;p style=&quot;margin:0px;margin-top:4px;text-align:center;&quot;&gt;&lt;b&gt;HandheldDevice&lt;/b&gt;&lt;/p&gt;&lt;hr size=&quot;1&quot;&gt;&lt;p style=&quot;margin:0px;margin-left:4px;&quot;&gt;- TYPE: String = &quot;HandheldDevice&quot;&lt;/p&gt;&lt;p style=&quot;margin:0px;margin-left:4px;&quot;&gt;- MAX_RANGE: int = 50000&lt;/p&gt;&lt;hr size=&quot;1&quot;&gt;&lt;p style=&quot;margin:0px;margin-left:4px;&quot;&gt;+ HandheldDevice(deviceId: String, position: Angle)&lt;/p&gt;" style="verticalAlign=top;align=left;overflow=fill;fontSize=12;fontFamily=Helvetica;html=1;" parent="1" vertex="1">
          <mxGeometry x="1070" y="600" width="430" height="110" as="geometry" />
        </mxCell>
        <mxCell id="oXQAJRGUwz_4EwkfqPwA-13" value="Extends" style="endArrow=block;endSize=16;endFill=0;html=1;rounded=0;exitX=0;exitY=0;exitDx=0;exitDy=0;entryX=1;entryY=1;entryDx=0;entryDy=0;" parent="1" source="oXQAJRGUwz_4EwkfqPwA-12" target="oXQAJRGUwz_4EwkfqPwA-5" edge="1">
          <mxGeometry width="160" relative="1" as="geometry">
            <mxPoint x="369.99999999999994" y="469.03" as="sourcePoint" />
            <mxPoint x="470" y="400" as="targetPoint" />
          </mxGeometry>
        </mxCell>
        <mxCell id="oXQAJRGUwz_4EwkfqPwA-14" value="&lt;p style=&quot;margin:0px;margin-top:4px;text-align:center;&quot;&gt;&lt;b&gt;DesktopDevice&lt;/b&gt;&lt;/p&gt;&lt;hr size=&quot;1&quot;&gt;&lt;p style=&quot;margin:0px;margin-left:4px;&quot;&gt;- TYPE: String = &quot;DesktopDevice&quot;&lt;/p&gt;&lt;p style=&quot;margin:0px;margin-left:4px;&quot;&gt;- MAX_RANGE: int = 200000&lt;/p&gt;&lt;hr size=&quot;1&quot;&gt;&lt;p style=&quot;margin:0px;margin-left:4px;&quot;&gt;+ DesktopDevice(deviceId: String, position Angle)&lt;/p&gt;&lt;p style=&quot;margin:0px;margin-left:4px;&quot;&gt;+ getAllCommunicableEntities(allEntities: ArrayList&amp;lt;Entity&amp;gt;): ArrayList&amp;lt;Entity&amp;gt;&lt;br&gt;&lt;/p&gt;" style="verticalAlign=top;align=left;overflow=fill;fontSize=12;fontFamily=Helvetica;html=1;" parent="1" vertex="1">
          <mxGeometry x="1070" y="460" width="440" height="100" as="geometry" />
        </mxCell>
        <mxCell id="oXQAJRGUwz_4EwkfqPwA-15" value="Extends" style="endArrow=block;endSize=16;endFill=0;html=1;rounded=0;exitX=0;exitY=0;exitDx=0;exitDy=0;entryX=1;entryY=0.5;entryDx=0;entryDy=0;" parent="1" source="oXQAJRGUwz_4EwkfqPwA-14" target="oXQAJRGUwz_4EwkfqPwA-5" edge="1">
          <mxGeometry width="160" relative="1" as="geometry">
            <mxPoint x="640" y="450" as="sourcePoint" />
            <mxPoint x="610" y="380" as="targetPoint" />
          </mxGeometry>
        </mxCell>
        <mxCell id="oXQAJRGUwz_4EwkfqPwA-16" value="&lt;p style=&quot;margin:0px;margin-top:4px;text-align:center;&quot;&gt;&lt;b&gt;LaptopDevice&lt;/b&gt;&lt;/p&gt;&lt;hr size=&quot;1&quot;&gt;&lt;p style=&quot;margin:0px;margin-left:4px;&quot;&gt;- TYPE: String = &quot;LaptopDevice&quot;&lt;/p&gt;&lt;p style=&quot;margin:0px;margin-left:4px;&quot;&gt;- MAX_RANGE: int = 100000&lt;/p&gt;&lt;hr size=&quot;1&quot;&gt;&lt;p style=&quot;margin:0px;margin-left:4px;&quot;&gt;+ LaptopDevice(deviceId: String, position: Angle)&lt;/p&gt;&lt;p style=&quot;margin:0px;margin-left:4px;&quot;&gt;&lt;br&gt;&lt;/p&gt;" style="verticalAlign=top;align=left;overflow=fill;fontSize=12;fontFamily=Helvetica;html=1;" parent="1" vertex="1">
          <mxGeometry x="1070" y="340" width="400" height="100" as="geometry" />
        </mxCell>
        <mxCell id="oXQAJRGUwz_4EwkfqPwA-17" value="Extends" style="endArrow=block;endSize=16;endFill=0;html=1;rounded=0;exitX=0;exitY=0;exitDx=0;exitDy=0;entryX=1;entryY=0;entryDx=0;entryDy=0;" parent="1" source="oXQAJRGUwz_4EwkfqPwA-16" target="oXQAJRGUwz_4EwkfqPwA-5" edge="1">
          <mxGeometry width="160" relative="1" as="geometry">
            <mxPoint x="630" y="165" as="sourcePoint" />
            <mxPoint x="510" y="140" as="targetPoint" />
          </mxGeometry>
        </mxCell>
        <mxCell id="oXQAJRGUwz_4EwkfqPwA-18" value="Extends" style="endArrow=block;endSize=16;endFill=0;html=1;rounded=0;exitX=0.5;exitY=0;exitDx=0;exitDy=0;entryX=1;entryY=1;entryDx=0;entryDy=0;" parent="1" source="oXQAJRGUwz_4EwkfqPwA-5" target="oXQAJRGUwz_4EwkfqPwA-20" edge="1">
          <mxGeometry width="160" relative="1" as="geometry">
            <mxPoint x="550" y="90" as="sourcePoint" />
            <mxPoint x="430" y="130" as="targetPoint" />
          </mxGeometry>
        </mxCell>
        <mxCell id="oXQAJRGUwz_4EwkfqPwA-19" value="Extends" style="endArrow=block;endSize=16;endFill=0;html=1;rounded=0;exitX=0.5;exitY=0;exitDx=0;exitDy=0;entryX=0;entryY=1;entryDx=0;entryDy=0;" parent="1" source="oXQAJRGUwz_4EwkfqPwA-1" target="oXQAJRGUwz_4EwkfqPwA-20" edge="1">
          <mxGeometry width="160" relative="1" as="geometry">
            <mxPoint x="170" y="70" as="sourcePoint" />
            <mxPoint x="200" y="130" as="targetPoint" />
          </mxGeometry>
        </mxCell>
        <mxCell id="oXQAJRGUwz_4EwkfqPwA-20" value="&lt;p style=&quot;margin:0px;margin-top:4px;text-align:center;&quot;&gt;&lt;b&gt;&lt;i&gt;Entity&lt;/i&gt;&lt;/b&gt;&lt;/p&gt;&lt;hr size=&quot;1&quot;&gt;&lt;p style=&quot;margin:0px;margin-left:4px;&quot;&gt;&lt;/p&gt;&lt;p style=&quot;margin: 4px 0px 0px;&quot;&gt;&lt;span style=&quot;background-color: initial;&quot;&gt;&amp;nbsp;- id: String&lt;/span&gt;&lt;br&gt;&lt;/p&gt;&lt;p style=&quot;margin: 0px 0px 0px 4px;&quot;&gt;- type: String&lt;/p&gt;&lt;p style=&quot;margin: 0px 0px 0px 4px;&quot;&gt;- position: Angle&lt;/p&gt;&lt;p style=&quot;margin: 0px 0px 0px 4px;&quot;&gt;- maxRange: int&lt;/p&gt;&lt;p style=&quot;margin: 0px 0px 0px 4px;&quot;&gt;- height: double&lt;/p&gt;&lt;p style=&quot;margin: 0px 0px 0px 4px;&quot;&gt;- fileManager: FileManager&lt;/p&gt;&lt;hr size=&quot;1&quot;&gt;&lt;p style=&quot;margin: 0px 0px 0px 4px;&quot;&gt;+ Entity(id: String, type: String, position: Angle, maxRange: int, height: double)&lt;/p&gt;&lt;p style=&quot;margin: 0px 0px 0px 4px;&quot;&gt;+&lt;span style=&quot;background-color: initial;&quot;&gt;&amp;nbsp;getId(): String&lt;/span&gt;&lt;/p&gt;&lt;p style=&quot;margin: 0px 0px 0px 4px;&quot;&gt;+ getType(): String&lt;/p&gt;&lt;p style=&quot;margin: 0px 0px 0px 4px;&quot;&gt;+ getPosition: Angle&lt;/p&gt;&lt;p style=&quot;margin: 0px 0px 0px 4px;&quot;&gt;+ getMaxRange: int&lt;/p&gt;&lt;p style=&quot;margin: 0px 0px 0px 4px;&quot;&gt;+ getHeight: double&lt;/p&gt;&lt;p style=&quot;margin: 0px 0px 0px 4px;&quot;&gt;+ setPosition(position: Angle): void&lt;/p&gt;&lt;p style=&quot;margin: 0px 0px 0px 4px;&quot;&gt;+ addFile(file: File): void&lt;/p&gt;&lt;p style=&quot;margin: 0px 0px 0px 4px;&quot;&gt;+ getFiles(): ArrayList&amp;lt;File&amp;gt;&lt;/p&gt;&lt;p style=&quot;margin: 0px 0px 0px 4px;&quot;&gt;+ getAllCommunicableEntities(allEntities: ArrayList&amp;lt;Entity&amp;gt;) : ArrayList&amp;lt;Entity&amp;gt;&lt;/p&gt;&lt;p style=&quot;margin: 0px 0px 0px 4px;&quot;&gt;+ equals(o: Object): boolean&lt;/p&gt;&lt;p style=&quot;margin: 0px 0px 0px 4px;&quot;&gt;+ hashCode(): int&lt;/p&gt;&lt;p style=&quot;margin: 0px 0px 0px 4px;&quot;&gt;+ toString(): String&lt;br&gt;&lt;/p&gt;" style="verticalAlign=top;align=left;overflow=fill;fontSize=12;fontFamily=Helvetica;html=1;" parent="1" vertex="1">
          <mxGeometry x="20" y="-95" width="430" height="330" as="geometry" />
        </mxCell>
        <mxCell id="-S67xje0BvBv4X5eibev-5" value="&lt;p style=&quot;margin:0px;margin-top:4px;text-align:center;&quot;&gt;&lt;i&gt;&amp;lt;&amp;lt;Interface&amp;gt;&amp;gt;&lt;/i&gt;&lt;br&gt;&lt;b&gt;Movement&lt;/b&gt;&lt;/p&gt;&lt;hr size=&quot;1&quot;&gt;&lt;p style=&quot;margin:0px;margin-left:4px;&quot;&gt;&lt;br&gt;&lt;/p&gt;&lt;hr size=&quot;1&quot;&gt;&lt;p style=&quot;margin:0px;margin-left:4px;&quot;&gt;+ move(): void&lt;/p&gt;&lt;p style=&quot;margin:0px;margin-left:4px;&quot;&gt;+ getNextMove(currPosition: Angle, velocity: double, height: int, direction: int): double&lt;/p&gt;" style="verticalAlign=top;align=left;overflow=fill;fontSize=12;fontFamily=Helvetica;html=1;" parent="1" vertex="1">
          <mxGeometry x="-620" y="20" width="460" height="140" as="geometry" />
        </mxCell>
        <mxCell id="-S67xje0BvBv4X5eibev-6" value="" style="endArrow=block;dashed=1;endFill=0;endSize=12;html=1;rounded=0;exitX=0.25;exitY=0;exitDx=0;exitDy=0;entryX=1;entryY=1;entryDx=0;entryDy=0;" parent="1" source="oXQAJRGUwz_4EwkfqPwA-1" target="-S67xje0BvBv4X5eibev-5" edge="1">
          <mxGeometry width="160" relative="1" as="geometry">
            <mxPoint x="-20" y="39.41" as="sourcePoint" />
            <mxPoint x="140" y="39.41" as="targetPoint" />
          </mxGeometry>
        </mxCell>
        <mxCell id="ZfkWlrgMxRxTjQ3l1lfV-9" value="MyAngleHelper" style="swimlane;fontStyle=1;align=center;verticalAlign=top;childLayout=stackLayout;horizontal=1;startSize=26;horizontalStack=0;resizeParent=1;resizeParentMax=0;resizeLast=0;collapsible=1;marginBottom=0;" parent="1" vertex="1">
          <mxGeometry x="-200" y="-260" width="250" height="60" as="geometry" />
        </mxCell>
        <mxCell id="ZfkWlrgMxRxTjQ3l1lfV-11" value="" style="line;strokeWidth=1;fillColor=none;align=left;verticalAlign=middle;spacingTop=-1;spacingLeft=3;spacingRight=3;rotatable=0;labelPosition=right;points=[];portConstraint=eastwest;" parent="ZfkWlrgMxRxTjQ3l1lfV-9" vertex="1">
          <mxGeometry y="26" width="250" height="8" as="geometry" />
        </mxCell>
        <mxCell id="ZfkWlrgMxRxTjQ3l1lfV-12" value="+ normaliseAngle(givenAngle: Angle): Angle" style="text;strokeColor=none;fillColor=none;align=left;verticalAlign=top;spacingLeft=4;spacingRight=4;overflow=hidden;rotatable=0;points=[[0,0.5],[1,0.5]];portConstraint=eastwest;fontStyle=4" parent="ZfkWlrgMxRxTjQ3l1lfV-9" vertex="1">
          <mxGeometry y="34" width="250" height="26" as="geometry" />
        </mxCell>
        <mxCell id="ZfkWlrgMxRxTjQ3l1lfV-14" value="Use" style="endArrow=open;endSize=12;dashed=1;html=1;rounded=0;exitX=0;exitY=0;exitDx=0;exitDy=0;entryX=1;entryY=0.5;entryDx=0;entryDy=0;" parent="1" source="oXQAJRGUwz_4EwkfqPwA-20" target="ZfkWlrgMxRxTjQ3l1lfV-12" edge="1">
          <mxGeometry width="160" relative="1" as="geometry">
            <mxPoint x="180" y="-502.9999999999998" as="sourcePoint" />
            <mxPoint x="90" y="-300" as="targetPoint" />
          </mxGeometry>
        </mxCell>
        <mxCell id="ZfkWlrgMxRxTjQ3l1lfV-15" value="Use" style="endArrow=open;endSize=12;dashed=1;html=1;rounded=0;exitX=1;exitY=0;exitDx=0;exitDy=0;entryX=0;entryY=0.5;entryDx=0;entryDy=0;" parent="1" source="-S67xje0BvBv4X5eibev-5" target="ZfkWlrgMxRxTjQ3l1lfV-12" edge="1">
          <mxGeometry width="160" relative="1" as="geometry">
            <mxPoint x="-220" y="-293" as="sourcePoint" />
            <mxPoint x="-100" y="-270" as="targetPoint" />
          </mxGeometry>
        </mxCell>
        <mxCell id="ZfkWlrgMxRxTjQ3l1lfV-16" value="Use" style="endArrow=open;endSize=12;dashed=1;html=1;rounded=0;exitX=0.25;exitY=0;exitDx=0;exitDy=0;entryX=0.75;entryY=1;entryDx=0;entryDy=0;" parent="1" source="oXQAJRGUwz_4EwkfqPwA-5" target="oXQAJRGUwz_4EwkfqPwA-20" edge="1">
          <mxGeometry width="160" relative="1" as="geometry">
            <mxPoint x="510" y="253" as="sourcePoint" />
            <mxPoint x="360" y="-50" as="targetPoint" />
          </mxGeometry>
        </mxCell>
        <mxCell id="ZfkWlrgMxRxTjQ3l1lfV-17" value="Use" style="endArrow=open;endSize=12;dashed=1;html=1;rounded=0;exitX=1;exitY=0;exitDx=0;exitDy=0;entryX=1;entryY=0.75;entryDx=0;entryDy=0;" parent="1" source="oXQAJRGUwz_4EwkfqPwA-14" target="oXQAJRGUwz_4EwkfqPwA-20" edge="1">
          <mxGeometry width="160" relative="1" as="geometry">
            <mxPoint x="805" y="320" as="sourcePoint" />
            <mxPoint x="590" y="80" as="targetPoint" />
            <Array as="points">
              <mxPoint x="1510" y="310" />
              <mxPoint x="780" y="310" />
            </Array>
          </mxGeometry>
        </mxCell>
        <mxCell id="ZfkWlrgMxRxTjQ3l1lfV-18" value="Use" style="endArrow=open;endSize=12;dashed=1;html=1;rounded=0;exitX=0.75;exitY=0;exitDx=0;exitDy=0;entryX=0;entryY=0.75;entryDx=0;entryDy=0;" parent="1" source="oXQAJRGUwz_4EwkfqPwA-7" target="oXQAJRGUwz_4EwkfqPwA-20" edge="1">
          <mxGeometry width="160" relative="1" as="geometry">
            <mxPoint x="-15" y="380" as="sourcePoint" />
            <mxPoint x="-230" y="140" as="targetPoint" />
            <Array as="points">
              <mxPoint x="-190" y="380" />
            </Array>
          </mxGeometry>
        </mxCell>
        <mxCell id="ZfkWlrgMxRxTjQ3l1lfV-19" value="CommunicationHelpers" style="swimlane;fontStyle=1;align=center;verticalAlign=top;childLayout=stackLayout;horizontal=1;startSize=26;horizontalStack=0;resizeParent=1;resizeParentMax=0;resizeLast=0;collapsible=1;marginBottom=0;" parent="1" vertex="1">
          <mxGeometry x="640" y="-220" width="850" height="120" as="geometry" />
        </mxCell>
        <mxCell id="ZfkWlrgMxRxTjQ3l1lfV-21" value="" style="line;strokeWidth=1;fillColor=none;align=left;verticalAlign=middle;spacingTop=-1;spacingLeft=3;spacingRight=3;rotatable=0;labelPosition=right;points=[];portConstraint=eastwest;" parent="ZfkWlrgMxRxTjQ3l1lfV-19" vertex="1">
          <mxGeometry y="26" width="850" height="8" as="geometry" />
        </mxCell>
        <mxCell id="ZfkWlrgMxRxTjQ3l1lfV-22" value="+ getAllCommunicableEntitiesFromSourceRelay(source: RelaySatellite, allEntities: ArrayList&lt;Entity&gt;): ArrayList&lt;Entity&gt;&#xa;+ getAllPrimaryCommunicableEntities(source: Entity, allEntities: ArrayList&lt;Entity&gt;): ArrayList&lt;Entity&gt;&#xa;- doRelayDfs(source: RelaySatellite, allRelays: ArrayList&lt;RelaySatellite&gt;, visitedRelays: HashSet&lt;RelaySatellite&gt;, allEntities: HashSet&lt;RelaySatellite&gt;): void&#xa;- getNextRelay(source: RelaySatellite, allRelays: ArrayList&lt;RelaySatellite&gt;, visitedRelays: HashSet&lt;RelaySatellite&gt;): RelaySatellite&#xa;- isCommunicable(source: Entity, dest: Entity): boolean" style="text;strokeColor=none;fillColor=none;align=left;verticalAlign=top;spacingLeft=4;spacingRight=4;overflow=hidden;rotatable=0;points=[[0,0.5],[1,0.5]];portConstraint=eastwest;fontStyle=4" parent="ZfkWlrgMxRxTjQ3l1lfV-19" vertex="1">
          <mxGeometry y="34" width="850" height="86" as="geometry" />
        </mxCell>
        <mxCell id="ZfkWlrgMxRxTjQ3l1lfV-23" value="Use" style="endArrow=open;endSize=12;dashed=1;html=1;rounded=0;exitX=1;exitY=0;exitDx=0;exitDy=0;entryX=0;entryY=0.5;entryDx=0;entryDy=0;" parent="1" source="oXQAJRGUwz_4EwkfqPwA-20" target="ZfkWlrgMxRxTjQ3l1lfV-22" edge="1">
          <mxGeometry width="160" relative="1" as="geometry">
            <mxPoint x="360" y="-227" as="sourcePoint" />
            <mxPoint x="170" y="-320" as="targetPoint" />
          </mxGeometry>
        </mxCell>
        <mxCell id="ZfkWlrgMxRxTjQ3l1lfV-24" value="Use" style="endArrow=open;endSize=12;dashed=1;html=1;rounded=0;exitX=-0.006;exitY=-0.101;exitDx=0;exitDy=0;entryX=0.75;entryY=0;entryDx=0;entryDy=0;exitPerimeter=0;" parent="1" source="ZfkWlrgMxRxTjQ3l1lfV-22" target="oXQAJRGUwz_4EwkfqPwA-20" edge="1">
          <mxGeometry width="160" relative="1" as="geometry">
            <mxPoint x="465" y="-266" as="sourcePoint" />
            <mxPoint x="565" y="-324.0000000000002" as="targetPoint" />
          </mxGeometry>
        </mxCell>
        <mxCell id="ZfkWlrgMxRxTjQ3l1lfV-25" value="BlackoutController" style="swimlane;fontStyle=1;align=center;verticalAlign=top;childLayout=stackLayout;horizontal=1;startSize=26;horizontalStack=0;resizeParent=1;resizeParentMax=0;resizeLast=0;collapsible=1;marginBottom=0;" parent="1" vertex="1">
          <mxGeometry x="-360" y="-613" width="489" height="266" as="geometry" />
        </mxCell>
        <mxCell id="ZfkWlrgMxRxTjQ3l1lfV-26" value="- allEntities: ArrayList&lt;Entity&gt;&#xa;- fileCentre: FIleCentre" style="text;strokeColor=none;fillColor=none;align=left;verticalAlign=top;spacingLeft=4;spacingRight=4;overflow=hidden;rotatable=0;points=[[0,0.5],[1,0.5]];portConstraint=eastwest;" parent="ZfkWlrgMxRxTjQ3l1lfV-25" vertex="1">
          <mxGeometry y="26" width="489" height="52" as="geometry" />
        </mxCell>
        <mxCell id="ZfkWlrgMxRxTjQ3l1lfV-27" value="" style="line;strokeWidth=1;fillColor=none;align=left;verticalAlign=middle;spacingTop=-1;spacingLeft=3;spacingRight=3;rotatable=0;labelPosition=right;points=[];portConstraint=eastwest;" parent="ZfkWlrgMxRxTjQ3l1lfV-25" vertex="1">
          <mxGeometry y="78" width="489" height="8" as="geometry" />
        </mxCell>
        <mxCell id="ZfkWlrgMxRxTjQ3l1lfV-28" value="+ createDevice(deviceId: String, type: String, position: Angle): void&#xa;+ removeDevice(deviceId: String): void&#xa;+ createSatellite(satelliteId: String, type: String, height: double, position: Angle): void&#xa;+ removeSatellite(satelliteId: String): void&#xa;+ listDeviceIds(): List&lt;String&gt;&#xa;+ listSatelliteIds(): List&lt;String&gt;&#xa;+ addFileToDevice(deviceId: String, fileName: String, content: String): void&#xa;+ getInfo(id: String): EntityInfoResponse&#xa;+ simulate(): void&#xa;+ simulate(numberOfMinutes: int): void&#xa;+ communicableEntitiesInRange(id: String): List&lt;String&gt;&#xa;+ sendFile(fileName: String, fromId: String, toId: String): void&#xa;&#xa;" style="text;strokeColor=none;fillColor=none;align=left;verticalAlign=top;spacingLeft=4;spacingRight=4;overflow=hidden;rotatable=0;points=[[0,0.5],[1,0.5]];portConstraint=eastwest;" parent="ZfkWlrgMxRxTjQ3l1lfV-25" vertex="1">
          <mxGeometry y="86" width="489" height="180" as="geometry" />
        </mxCell>
        <mxCell id="Eucfuo0FFmgb6s2XWvRA-9" value="1" style="endArrow=open;html=1;endSize=12;startArrow=diamondThin;startSize=14;startFill=1;edgeStyle=orthogonalEdgeStyle;align=left;verticalAlign=bottom;rounded=0;entryX=0.5;entryY=0;entryDx=0;entryDy=0;exitX=1;exitY=0.5;exitDx=0;exitDy=0;" parent="1" source="ZfkWlrgMxRxTjQ3l1lfV-28" target="oXQAJRGUwz_4EwkfqPwA-20" edge="1">
          <mxGeometry x="-1" y="3" relative="1" as="geometry">
            <mxPoint x="260" y="-600" as="sourcePoint" />
            <mxPoint x="680" y="-440" as="targetPoint" />
            <Array as="points">
              <mxPoint x="235" y="-434" />
            </Array>
          </mxGeometry>
        </mxCell>
        <mxCell id="Eucfuo0FFmgb6s2XWvRA-10" value="1..*" style="text;html=1;align=center;verticalAlign=middle;resizable=0;points=[];autosize=1;strokeColor=none;fillColor=none;" parent="1" vertex="1">
          <mxGeometry x="200" y="-130" width="30" height="20" as="geometry" />
        </mxCell>
        <mxCell id="Eucfuo0FFmgb6s2XWvRA-14" value="Use" style="endArrow=open;endSize=12;dashed=1;html=1;rounded=0;entryX=0.5;entryY=0;entryDx=0;entryDy=0;" parent="1" source="ZfkWlrgMxRxTjQ3l1lfV-22" target="oXQAJRGUwz_4EwkfqPwA-8" edge="1">
          <mxGeometry width="160" relative="1" as="geometry">
            <mxPoint x="617.4000000000001" y="-219.99600000000015" as="sourcePoint" />
            <mxPoint x="400" y="59.69" as="targetPoint" />
            <Array as="points" />
          </mxGeometry>
        </mxCell>
        <mxCell id="0lzBvpwOYxhzp_cVHb9h-5" value="FileCentre" style="swimlane;fontStyle=1;align=center;verticalAlign=top;childLayout=stackLayout;horizontal=1;startSize=26;horizontalStack=0;resizeParent=1;resizeParentMax=0;resizeLast=0;collapsible=1;marginBottom=0;" vertex="1" parent="1">
          <mxGeometry x="390" y="-630" width="480" height="216" as="geometry" />
        </mxCell>
        <mxCell id="0lzBvpwOYxhzp_cVHb9h-6" value="- allFiles: HashMap&lt;Entity, HashMap&lt;Entity, ArrayList&lt;File&gt;&gt;" style="text;strokeColor=none;fillColor=none;align=left;verticalAlign=top;spacingLeft=4;spacingRight=4;overflow=hidden;rotatable=0;points=[[0,0.5],[1,0.5]];portConstraint=eastwest;" vertex="1" parent="0lzBvpwOYxhzp_cVHb9h-5">
          <mxGeometry y="26" width="480" height="26" as="geometry" />
        </mxCell>
        <mxCell id="0lzBvpwOYxhzp_cVHb9h-7" value="" style="line;strokeWidth=1;fillColor=none;align=left;verticalAlign=middle;spacingTop=-1;spacingLeft=3;spacingRight=3;rotatable=0;labelPosition=right;points=[];portConstraint=eastwest;" vertex="1" parent="0lzBvpwOYxhzp_cVHb9h-5">
          <mxGeometry y="52" width="480" height="8" as="geometry" />
        </mxCell>
        <mxCell id="0lzBvpwOYxhzp_cVHb9h-8" value="- getTotalBytesOfFiles(entity Entity): int&#xa;- getTotalNumFiles(entity Entity): int&#xa;- getFileFromEntity(entity Entity, fileName String): File&#xa;- getNumberFilesBeingTransferredOutwards(entity Entity): int&#xa;- getNumberFilesBeingTransferredInwards(entity Entity): int&#xa;- checkExceptions(from: Entity, to: Entity, fileName: String): void&#xa;+ updateTransfer(allEntities: ArrayList&lt;Entities&gt;): void&#xa;- communicableEntities(source Entity, allEntities: ArrayList&lt;Entity&gt;): ArrayList&lt;Entity&gt;&#xa;+ addFileInstantly(to: Entity, file: File)&#xa;+ getFiles(entity Entity): ArrayList&lt;File&gt;&#xa;&#xa;&#xa;" style="text;strokeColor=none;fillColor=none;align=left;verticalAlign=top;spacingLeft=4;spacingRight=4;overflow=hidden;rotatable=0;points=[[0,0.5],[1,0.5]];portConstraint=eastwest;" vertex="1" parent="0lzBvpwOYxhzp_cVHb9h-5">
          <mxGeometry y="60" width="480" height="156" as="geometry" />
        </mxCell>
        <mxCell id="0lzBvpwOYxhzp_cVHb9h-11" value="1" style="endArrow=open;html=1;endSize=12;startArrow=diamondThin;startSize=14;startFill=1;edgeStyle=orthogonalEdgeStyle;align=left;verticalAlign=bottom;rounded=0;entryX=0;entryY=0.5;entryDx=0;entryDy=0;exitX=1;exitY=0.5;exitDx=0;exitDy=0;" edge="1" parent="1" source="ZfkWlrgMxRxTjQ3l1lfV-26" target="0lzBvpwOYxhzp_cVHb9h-8">
          <mxGeometry x="-1" y="3" relative="1" as="geometry">
            <mxPoint x="290" y="-549.9999999999998" as="sourcePoint" />
            <mxPoint x="316" y="-210.99999999999977" as="targetPoint" />
            <Array as="points">
              <mxPoint x="316" y="-545" />
              <mxPoint x="316" y="-492" />
            </Array>
          </mxGeometry>
        </mxCell>
        <mxCell id="0lzBvpwOYxhzp_cVHb9h-12" value="1" style="text;html=1;align=center;verticalAlign=middle;resizable=0;points=[];autosize=1;strokeColor=none;fillColor=none;" vertex="1" parent="1">
          <mxGeometry x="360" y="-490" width="20" height="20" as="geometry" />
        </mxCell>
      </root>
    </mxGraphModel>
  </diagram>
</mxfile>
